<svg xmlns="http://www.w3.org/2000/svg" data-name="Layer 1" viewBox="0 0 128 128"><circle cx="64" cy="64" r="64" fill="#1e6dff"/><path fill="#fff" d="M57 63s6-2.23 6-10-5.14-11-12-11H28v44h23s13 0 13-13c0 0 0-10-7-10zM38 50h13s3 0 3 4c0 4.52-2 5-4 5H38zm12 28H38V67l12.59-.07S55 67 55 73c0 5-3.19 4.95-5 5zm34.77-25.12c-16.69 0-16.68 16.68-16.68 16.68S67.17 86 85 86c0 0 15 1.39 15-11h-8s.24 4.28-7 4.28c0 0-8 .79-8-7.28h23s2.34-19.12-15.23-19.12zM92 66H77s1.24-6.76 7.94-6.76S92 66 92 66zM75 44h19v6H75z"/></svg>