<svg xmlns="http://www.w3.org/2000/svg" enable-background="new 0 0 24 24" viewBox="0 0 24 24"><path fill="#4285F4" d="M23.761,12.273c0-0.819-0.067-1.635-0.207-2.441H12.237v4.621h6.48c-0.269,1.491-1.133,2.809-2.396,3.646V21.1h3.868C22.455,19.015,23.761,15.925,23.761,12.273z"/><path fill="#34A853" d="M12.237,24c3.238,0,5.966-1.062,7.953-2.897l-3.868-3.001c-1.078,0.731-2.463,1.148-4.085,1.148c-3.129,0-5.786-2.109-6.735-4.952H1.518v3.092C3.554,21.443,7.702,24,12.237,24L12.237,24z"/><path fill="#FBBC04" d="M5.502,14.297C5,12.809,5,11.192,5.502,9.704V6.612H1.518c-1.704,3.391-1.704,7.387,0,10.778L5.502,14.297L5.502,14.297z"/><path fill="#EA4335" d="M12.237,4.752c1.711-0.028,3.363,0.617,4.602,1.799l3.427-3.424C18.094,1.087,15.217-0.033,12.237,0c-4.535,0-8.683,2.56-10.72,6.611l3.984,3.093C6.451,6.861,9.109,4.752,12.237,4.752L12.237,4.752z"/><path fill="#2D9248" d="M5.502,14.297L5.502,14.297l-3.984,3.092l0,0C3.518,21.373,7.558,23.91,12,23.997v-4.753C8.975,19.141,6.427,17.067,5.502,14.297L5.502,14.297z"/><path fill="#DBA403" d="M1.518,6.612L1.518,6.612c-1.704,3.391-1.704,7.387,0,10.778l0,0l3.984-3.092C5,12.809,5,11.192,5.502,9.704l0,0L1.518,6.612L1.518,6.612z"/><path fill="#CC3A2E" d="M12,0.003C7.558,0.09,3.518,2.631,1.518,6.612l0,0l3.984,3.093C6.427,6.933,8.975,4.86,12,4.756V0.003L12,0.003z"/></svg>