<svg xmlns="http://www.w3.org/2000/svg" viewBox="0 0 24 24"><path fill="#FF9800" d="m10.808 12.139-.723 2.899c.893.222 3.646 1.106 4.053-.53.424-1.705-2.437-2.146-3.33-2.369z"/><path fill="#FF9800" d="M12 0C5.373 0 0 5.373 0 12s5.373 12 12 12 12-5.373 12-12S18.627 0 12 0zm5.146 10.291-.002.002c-.174 1.169-.822 1.735-1.682 1.933 1.181.614 1.783 1.558 1.21 3.193-.71 2.031-2.399 2.203-4.644 1.778l-.545 2.183-1.317-.328.538-2.154-.348-.075c-.353-.09-.705-.184-.702-.197l-.54 2.165-1.315-.328.545-2.187c-.308-.08-.619-.163-.938-.243l-1.714-.427.653-1.507s.97.258.957.238c.374.092.539-.151.604-.313l.861-3.452.139.034a.88.88 0 0 0-.137-.044l.614-2.464c.017-.282-.079-.635-.613-.768.021-.013-.956-.237-.956-.237l.35-1.406 1.816.453-.001.007c.274.067.554.132.841.197l.54-2.163 1.316.328-.528 2.12c.353.081.709.161 1.055.248l.525-2.106 1.317.329-.539 2.163c1.663.573 2.878 1.431 2.64 3.028z"/><path fill="#FF9800" d="m11.794 8.184-.655 2.629c.743.186 3.035.941 3.406-.546v-.001c.386-1.552-2.008-1.898-2.751-2.082z"/></svg>