<svg xmlns="http://www.w3.org/2000/svg" data-name="Layer 1" viewBox="0 0 128 128"><circle cx="64" cy="64" r="64" fill="#e84c88"/><path fill="#fff" d="M64 101a37 37 0 1 1 37-37 37.08 37.08 0 0 1-37 37Zm31.24-31.95a47.24 47.24 0 0 0-19.71-1.31 139.44 139.44 0 0 1 6.07 22.54 32.32 32.32 0 0 0 13.64-21.23ZM76.33 93.11a133.41 133.41 0 0 0-6.77-24.06h-.2C51.67 75.32 45.2 87.66 44.59 88.77A32.06 32.06 0 0 0 64 95.54a30.86 30.86 0 0 0 12.33-2.43Zm-35.78-7.88c.61-1.11 9.4-15.57 25.68-20.83a3.11 3.11 0 0 1 1.31-.3c-.81-1.82-1.62-3.64-2.63-5.46a111.47 111.47 0 0 1-32.55 4.45v1a31.66 31.66 0 0 0 8.19 21.13Zm-7.48-27.6a125.93 125.93 0 0 0 29.22-3.74 194.56 194.56 0 0 0-11.63-18.2 30.64 30.64 0 0 0-17.59 21.94Zm23.55-24.16a193.12 193.12 0 0 1 11.83 18.4c11.12-4.25 16-10.51 16.58-11.32a31.31 31.31 0 0 0-20.83-7.89 20.37 20.37 0 0 0-7.58.81Zm31.84 10.61c-.71.81-5.86 7.68-17.59 12.54.71 1.52 1.52 2.93 2.12 4.55.2.51.51 1.11.71 1.62a75.1 75.1 0 0 1 22 1 32.3 32.3 0 0 0-7.24-19.71Z"/></svg>