<svg xmlns="http://www.w3.org/2000/svg" enable-background="new 0 0 24 24" viewBox="0 0 24 24"><path fill="#744C9E" d="M11.993,23.994c6.678,0,12.001-5.322,12.001-12c0-6.678-5.321-12-12-12c-6.679,0-12,5.321-12,11.998C-0.006,18.67,5.315,23.994,11.993,23.994L11.993,23.994z M2.602,12.098l9.288,9.287C6.776,21.386,2.602,17.212,2.602,12.098L2.602,12.098z M11.993,2.602c3.115,0.006,5.877,1.514,7.601,3.837l0.018,0.025l-1.355,1.146c-1.399-2.027-3.709-3.339-6.326-3.339H11.89h-0.003h-0.047c-3.299,0-6.104,2.113-7.136,5.06L4.689,9.385l9.81,9.81c2.401-0.836,4.278-2.922,4.8-5.426h-4.07v-1.774h6.157c0,4.488-3.131,8.244-7.305,9.183L2.811,9.907C3.749,5.733,7.507,2.602,11.993,2.602L11.993,2.602z"/><path fill="#DEDEDE" d="M2.602 12.098c0 2.675 1.143 5.094 2.965 6.791l1.913-1.913L2.602 12.098 2.602 12.098zM11.993 2.602c-4.486 0-8.244 3.131-9.181 7.305l5.869 5.87 1.2-1.2L4.689 9.385l.016-.053c1.032-2.946 3.837-5.06 7.136-5.06h.047.003.039c2.26 0 4.291.978 5.704 2.551l1.241-1.241C17.15 3.752 14.705 2.608 11.993 2.602L11.993 2.602z"/><path fill="#65428A" d="M11.93,4.272H11.89h-0.003h-0.047c-3.299,0-6.104,2.113-7.136,5.06L4.689,9.385l5.191,5.191l7.753-7.753C16.221,5.25,14.19,4.272,11.93,4.272L11.93,4.272z M11.994-0.006c-6.679,0-12,5.321-12,11.998c0,3.459,1.428,6.556,3.734,8.737l1.84-1.84c-1.822-1.698-2.965-4.116-2.965-6.791l4.878,4.878l1.2-1.2l-5.869-5.87c0.937-4.174,4.696-7.305,9.181-7.305c2.713,0.006,5.158,1.15,6.882,2.979l1.854-1.854C18.549,1.422,15.454-0.006,11.994-0.006L11.994-0.006z"/></svg>