<svg id="Group_19" data-name="Group 19" xmlns="http://www.w3.org/2000/svg" width="1920" height="1080" viewBox="0 0 1920 1080">
  <g id="Group_18" data-name="Group 18">
    <g id="Group_15" data-name="Group 15" transform="translate(42 42)">
      <path id="Path_12" data-name="Path 12" d="M14,0A14,14,0,1,1,0,14,14,14,0,0,1,14,0Z" transform="translate(146 727)" fill="#2e80fa"/>
      <g id="Group_2" data-name="Group 2">
        <circle id="Ellipse_1" data-name="Ellipse 1" cx="8" cy="8" r="8" transform="translate(152 733)" fill="#2e80fa"/>
        <circle id="Ellipse_2" data-name="Ellipse 2" cx="7.5" cy="7.5" r="7.5" transform="translate(152.5 733.5)" fill="none" stroke="#fff" stroke-width="1"/>
      </g>
    </g>
    <g id="Group_16" data-name="Group 16" transform="translate(141 -158)">
      <path id="Path_13" data-name="Path 13" d="M14,0A14,14,0,1,1,0,14,14,14,0,0,1,14,0Z" transform="translate(548 993)" fill="#f05e5e"/>
      <g id="Group_4" data-name="Group 4">
        <circle id="Ellipse_5" data-name="Ellipse 5" cx="8" cy="8" r="8" transform="translate(554 999)" fill="#f05e5e"/>
        <circle id="Ellipse_6" data-name="Ellipse 6" cx="7.5" cy="7.5" r="7.5" transform="translate(554.5 999.5)" fill="none" stroke="#fff" stroke-width="1"/>
      </g>
    </g>
    <g id="Group_10" data-name="Group 10" transform="translate(40 -18)">
      <circle id="Ellipse_20" data-name="Ellipse 20" cx="14" cy="14" r="14" transform="translate(1243 930)" fill="#14b9e2"/>
      <g id="Group_5" data-name="Group 5">
        <circle id="Ellipse_7" data-name="Ellipse 7" cx="8" cy="8" r="8" transform="translate(1249 936)" fill="#14b9e2"/>
        <circle id="Ellipse_8" data-name="Ellipse 8" cx="7.5" cy="7.5" r="7.5" transform="translate(1249.5 936.5)" fill="none" stroke="#fff" stroke-width="1"/>
      </g>
    </g>
    <g id="Group_12" data-name="Group 12" transform="translate(-43 -38)">
      <path id="Path_16" data-name="Path 16" d="M18,0A18,18,0,1,1,0,18,18,18,0,0,1,18,0Z" transform="translate(1728 248)" fill="#0ccbbf" opacity="0.6"/>
      <g id="Group_6" data-name="Group 6">
        <circle id="Ellipse_9" data-name="Ellipse 9" cx="8" cy="8" r="8" transform="translate(1738 258)" fill="#0ccbbf"/>
        <circle id="Ellipse_10" data-name="Ellipse 10" cx="7.5" cy="7.5" r="7.5" transform="translate(1738.5 258.5)" fill="none" stroke="#fff" stroke-width="1"/>
      </g>
    </g>
    <g id="Group_13" data-name="Group 13" transform="translate(137 -48)">
      <path id="Path_15" data-name="Path 15" d="M24,0A24,24,0,1,1,0,24,24,24,0,0,1,24,0Z" transform="translate(1160 125)" fill="#ff993c" opacity="0.464"/>
      <g id="Group_7" data-name="Group 7" transform="translate(-0.042)">
        <ellipse id="Ellipse_11" data-name="Ellipse 11" cx="7.978" cy="8" rx="7.978" ry="8" transform="translate(1176.042 141)" fill="#ff993c"/>
        <path id="Path_11" data-name="Path 11" d="M1191.5,149a7.48,7.48,0,1,1-7.48-7.5A7.49,7.49,0,0,1,1191.5,149Z" fill="none" stroke="#fff" stroke-width="1"/>
      </g>
    </g>
    <g id="Group_11" data-name="Group 11">
      <path id="Path_17" data-name="Path 17" d="M17.5,0A17.5,17.5,0,1,1,0,17.5,17.5,17.5,0,0,1,17.5,0Z" transform="translate(1545 688)" fill="#a948f4"/>
      <g id="Group_8" data-name="Group 8" transform="translate(1 1)">
        <circle id="Ellipse_12" data-name="Ellipse 12" cx="8" cy="8" r="8" transform="translate(1554 697)" fill="#a948f4"/>
        <circle id="Ellipse_13" data-name="Ellipse 13" cx="7.5" cy="7.5" r="7.5" transform="translate(1554.5 697.5)" fill="none" stroke="#fff" stroke-width="1"/>
      </g>
    </g>
    <g id="Group_17" data-name="Group 17" transform="translate(-1077 -202)">
      <path id="Path_17-2" data-name="Path 17" d="M32.665,0A32.665,32.665,0,1,1,0,32.665,32.665,32.665,0,0,1,32.665,0Z" transform="translate(1530.335 673.335)" fill="#f4cc48" opacity="0.3"/>
      <g id="Group_8-2" data-name="Group 8" transform="translate(1 1)">
        <circle id="Ellipse_12-2" data-name="Ellipse 12" cx="8" cy="8" r="8" transform="translate(1554 697)" fill="#f4cc48"/>
        <circle id="Ellipse_13-2" data-name="Ellipse 13" cx="7.5" cy="7.5" r="7.5" transform="translate(1554.5 697.5)" fill="none" stroke="#fff" stroke-width="1"/>
      </g>
    </g>
    <g id="Group_14" data-name="Group 14">
      <path id="Path_14" data-name="Path 14" d="M14,0A14,14,0,1,1,0,14,14,14,0,0,1,14,0Z" transform="translate(262 125)" fill="#f236e0"/>
      <g id="Group_9" data-name="Group 9" transform="translate(-2)">
        <circle id="Ellipse_3" data-name="Ellipse 3" cx="8" cy="8" r="8" transform="translate(270 131)" fill="#f236e0"/>
        <circle id="Ellipse_4" data-name="Ellipse 4" cx="7.5" cy="7.5" r="7.5" transform="translate(270.5 131.5)" fill="none" stroke="#fff" stroke-width="1"/>
      </g>
    </g>
  </g>
  <g id="Rectangle_1" data-name="Rectangle 1" fill="none" stroke="#fff" stroke-width="1" opacity="0">
    <rect width="1920" height="1080" stroke="none"/>
    <rect x="0.5" y="0.5" width="1919" height="1079" fill="none"/>
  </g>
</svg>
